<?xml version="1.0" encoding="UTF-8" standalone="no"?>
<svg
   width="257.90765"
   height="241.68542"
   viewBox="0 0 257.90765 241.68543"
   version="1.1"
   preserveAspectRatio="xMidYMid"
   id="svg996"
   sodipodi:docname="logo.svg"
   inkscape:version="1.1 (c4e8f9ed74, 2021-05-24)"
   inkscape:export-filename="/home/mgonnav/git/instapaw/static/img/logo.png"
   inkscape:export-xdpi="192"
   inkscape:export-ydpi="192"
   xmlns:inkscape="http://www.inkscape.org/namespaces/inkscape"
   xmlns:sodipodi="http://sodipodi.sourceforge.net/DTD/sodipodi-0.dtd"
   xmlns="http://www.w3.org/2000/svg"
   xmlns:svg="http://www.w3.org/2000/svg">
  <defs
     id="defs1000" />
  <sodipodi:namedview
     id="namedview998"
     pagecolor="#505050"
     bordercolor="#eeeeee"
     borderopacity="1"
     inkscape:pageshadow="0"
     inkscape:pageopacity="0"
     inkscape:pagecheckerboard="0"
     showgrid="false"
     inkscape:zoom="2.4113446"
     inkscape:cx="181.6414"
     inkscape:cy="132.08398"
     inkscape:window-width="1720"
     inkscape:window-height="1416"
     inkscape:window-x="1920"
     inkscape:window-y="24"
     inkscape:window-maximized="1"
     inkscape:current-layer="layer3"
     fit-margin-top="0"
     fit-margin-left="0"
     fit-margin-right="0"
     fit-margin-bottom="0" />
  <g
     inkscape:groupmode="layer"
     id="layer2"
     inkscape:label="paw"
     transform="translate(-2.3831914,-1.3010387)">
    <g
       transform="matrix(0.60566901,0,0,0.60566901,-428.2259,-249.66433)"
       id="layer1">
      <path
         d="m 921.33923,581.4693 c 24.0243,2.80534 52.37886,8.1762 65.0633,31.40835 9.26227,13.69502 17.32517,28.38401 28.87647,40.36617 20.4742,10.36026 40.8732,22.80183 55.5624,40.70359 18.4349,27.56507 12.8528,67.04874 -8.5754,91.25527 -23.9937,21.96745 -58.5285,32.94178 -90.50948,24.81452 -20.44108,-4.08663 -40.82293,-16.11271 -62.09074,-9.39446 -19.67342,5.52125 -39.19757,14.22038 -60.14891,11.8866 -19.91653,-0.67497 -37.78663,-10.41533 -54.54059,-20.2091 -19.53406,-12.53883 -31.7396,-35.21136 -30.41665,-58.50793 0.067,-34.97267 26.3604,-63.96641 55.97055,-79.31568 12.63694,-6.1417 25.90432,-12.81303 31.91156,-26.45203 8.58936,-15.73398 16.12353,-35.49722 35.20799,-40.86311 10.77032,-3.919 22.26986,-5.48983 33.6895,-5.69219 z"
         style="fill:#8a49a1;fill-opacity:1;fill-rule:evenodd;stroke:#8a49a1;stroke-width:1px;stroke-linecap:butt;stroke-linejoin:miter;stroke-opacity:1"
         id="path2078" />
      <path
         d="m 713.47645,547.66498 c 5.12977,-18.01457 19.67126,-34.6786 38.97729,-37.11684 13.80277,-1.78026 28.08593,1.72456 40.23749,8.24205 22.16066,14.75851 35.05953,39.74123 42.35302,64.6795 3.67599,11.92517 6.17666,24.67526 3.14767,37.03976 -2.7993,14.60207 -13.39057,26.97443 -27.02046,32.66676 -17.70364,10.64278 -41.17953,9.20349 -58.05972,-2.43004 -10.04038,-6.64991 -18.93779,-15.32943 -24.33797,-26.20917 -12.78899,-23.06312 -21.41515,-50.46696 -15.29732,-76.87202 z"
         style="fill:#ffdf9e;fill-opacity:1;fill-rule:evenodd;stroke:#ffdf9e;stroke-width:1px;stroke-linecap:butt;stroke-linejoin:miter;stroke-opacity:1"
         id="path2040" />
      <path
         d="m 427.14286,81.071428 c 0,0 29.46428,0.178571 45.71428,37.857142 0,0 11.21308,24.43717 7.32143,61.96429 0,0 -0.60865,37.77966 -23.08454,53.18448 0,0 -30.55712,27.7792 -65.65992,-9.59645 0,0 -24.4962,-26.26396 -29.29442,-63.38707 0,0 -5.3033,-38.3858 18.43528,-61.366767 0,0 20.13932,-18.834197 46.56789,-18.655625 z"
         transform="translate(452.8571,333.7907)"
         style="fill:#ffc273;fill-opacity:1;fill-rule:evenodd;stroke:#ffc273;stroke-width:1.00055;stroke-linecap:butt;stroke-linejoin:miter;stroke-miterlimit:4;stroke-dasharray:none;stroke-opacity:1"
         id="path2071" />
      <path
         d="m 571.96429,86.785713 c 0,0 36.25,10.714286 32.32143,52.142857 0,0 2.05835,33.27693 -17.63963,63.58151 0,0 -19.95051,37.37564 -46.46702,41.41625 0,0 -29.29442,9.09137 -50.50762,-35.86042 0,0 -15.15229,-51.0127 8.33376,-85.35789 0,0 27.42112,-50.94645 73.95908,-35.922307 z"
         transform="translate(452.8571,333.7907)"
         style="fill:#e56969;fill-opacity:1;fill-rule:evenodd;stroke:#e56969;stroke-width:1px;stroke-linecap:butt;stroke-linejoin:miter;stroke-opacity:1"
         id="path2073" />
      <path
         d="m 1105.3571,522.71927 c 17.0128,5.19957 29.0252,21.65542 30.538,39.14833 1.6415,15.71874 -2.0788,31.51923 -7.3703,46.23188 -8.6097,21.5116 -24.1266,40.31698 -43.7581,52.63552 -14.8357,8.09747 -33.3338,4.66111 -46.9133,-4.41714 -5.555,-2.66124 -8.9406,-7.70303 -11.333,-13.19597 -9.0423,-17.99186 -10.3113,-39.89227 -2.093,-58.41912 6.9469,-17.44643 15.4953,-35.25253 30.1471,-47.54014 11.1088,-10.0964 25.6272,-18.34264 41.1562,-16.72517 3.2906,0.33413 6.5337,1.11092 9.6264,2.28181 z"
         style="fill:#c1558b;fill-opacity:1;fill-rule:evenodd;stroke:#c1558b;stroke-width:1px;stroke-linecap:butt;stroke-linejoin:miter;stroke-opacity:1"
         id="path2075" />
    </g>
  </g>
  <g
     inkscape:groupmode="layer"
     id="layer3"
     inkscape:label="ig_logo"
     transform="translate(-2.3831914,-1.3010387)">
    <g
       id="g994"
       transform="matrix(0.90699098,0,0,0.90699098,102.03819,65.779447)"
       style="fill:#f2f2f2">
      <path
         d="m 32.303204,78.758211 c 14.781419,0 16.532135,0.05626 22.36946,0.322587 5.397399,0.246335 8.328586,1.148171 10.279488,1.906075 2.583774,1.004238 4.428097,2.204049 6.365159,4.141108 1.937061,1.937059 3.136871,3.781386 4.140891,6.365156 0.75812,1.950903 1.65995,4.882092 1.90629,10.279263 0.26633,5.83755 0.32259,7.58827 0.32259,22.36968 0,14.78142 -0.0563,16.53214 -0.32259,22.36946 -0.24634,5.3974 -1.14817,8.32859 -1.90629,10.27949 -1.00402,2.58377 -2.20383,4.4281 -4.140891,6.36516 -1.937062,1.93705 -3.781385,3.13687 -6.365159,4.14089 -1.950902,0.75812 -4.882089,1.65996 -10.279488,1.90629 -5.836447,0.26633 -7.587158,0.32259 -22.36946,0.32259 -14.782295,0 -16.533011,-0.0563 -22.3694557,-0.32259 -5.397396,-0.24633 -8.328585,-1.14817 -10.27926804,-1.90629 -2.58398996,-1.00402 -4.42831696,-2.20384 -6.36537496,-4.14089 -1.93706,-1.93706 -3.136871,-3.78139 -4.1408903,-6.36516 -0.758122,-1.9509 -1.659959,-4.88209 -1.906294,-10.27927 -0.266332,-5.83754 -0.322587,-7.58826 -0.322587,-22.36968 0,-14.78141 0.05626,-16.53213 0.322587,-22.36946 0.246335,-5.397391 1.148172,-8.32858 1.906294,-10.279483 1.0040193,-2.58377 2.2038303,-4.428097 4.1408903,-6.365156 1.937058,-1.937059 3.781385,-3.13687 6.36537496,-4.141108 C 1.6051633,80.228969 4.5363523,79.327133 9.9335283,79.080798 15.771076,78.814466 17.521787,78.758211 32.303204,78.758211 m 0,-9.9747 c -15.034561,0 -16.919543,0.06373 -22.8241097,0.333135 -5.892483,0.268968 -9.91646804,1.204646 -13.437893,2.573222 -3.640309,1.414724 -6.7275173,3.307614 -9.8050573,6.385153 -3.077539,3.07754 -4.970429,6.164748 -6.385152,9.805056 -1.368577,3.521427 -2.304254,7.545411 -2.573223,13.437893 -0.269409,5.90435 -0.332915,7.78955 -0.332915,22.82411 0,15.03457 0.06351,16.91977 0.332915,22.82412 0.268969,5.89248 1.204646,9.91647 2.573223,13.43789 1.414723,3.64009 3.307613,6.72752 6.385152,9.80506 3.07754,3.07754 6.1647483,4.97043 9.8050573,6.38515 3.52142496,1.36858 7.54541,2.30426 13.437893,2.57322 5.9045667,0.26941 7.7895487,0.33292 22.8241097,0.33292 15.034568,0 16.919766,-0.0635 22.824118,-0.33292 5.89248,-0.26896 9.916465,-1.20464 13.437891,-2.57322 3.640307,-1.41472 6.727519,-3.30761 9.805059,-6.38515 3.07754,-3.07754 4.97043,-6.16475 6.38515,-9.80506 1.36858,-3.52142 2.30425,-7.54541 2.57322,-13.43789 0.26941,-5.90435 0.33314,-7.78955 0.33314,-22.82412 0,-15.03456 -0.0637,-16.91976 -0.33314,-22.82411 -0.26897,-5.892482 -1.20464,-9.916466 -2.57322,-13.437893 -1.41472,-3.640308 -3.30761,-6.727516 -6.38515,-9.805056 -3.07754,-3.077539 -6.164752,-4.970429 -9.805059,-6.385153 -3.521426,-1.368576 -7.545411,-2.304254 -13.437891,-2.573222 -5.904352,-0.269409 -7.78955,-0.333135 -22.824118,-0.333135 z m 0,26.931162 c -15.699952,0 -28.4274077,12.727457 -28.4274077,28.427407 0,15.69996 12.7274557,28.42741 28.4274077,28.42741 15.699959,0 28.427415,-12.72745 28.427415,-28.42741 0,-15.69995 -12.727456,-28.427407 -28.427415,-28.427407 z m 0,46.880347 c -10.191147,0 -18.452929,-8.26179 -18.452929,-18.45294 0,-10.19115 8.261782,-18.45293 18.452929,-18.45293 10.191152,0 18.452931,8.26178 18.452931,18.45293 0,10.19115 -8.261779,18.45294 -18.452931,18.45294 z M 68.496655,94.591553 c 0,3.668875 -2.974043,6.643137 -6.642917,6.643137 -3.668878,0 -6.643136,-2.974262 -6.643136,-6.643137 0,-3.668876 2.974258,-6.642915 6.643136,-6.642915 3.668874,0 6.642917,2.974039 6.642917,6.642915 z"
         fill="#0a0a08"
         id="path992"
         style="fill:#f2f2f2;stroke-width:0.432488" />
    </g>
  </g>
</svg>
